<?xml version="1.0" encoding="UTF-8"?> <svg xmlns="http://www.w3.org/2000/svg" viewBox="0 0 305.97 141.7"><defs><style>.cls-1,.cls-2{fill:#fff;}.cls-1{fill-rule:evenodd;}</style></defs><title>footer-logo</title><g id="Слой_2" data-name="Слой 2"><g id="Layer_1" data-name="Layer 1"><polygon class="cls-1" points="37.97 0 37.97 56.4 4.87 40.6 4.87 24.8 37.97 0"></polygon><polygon class="cls-2" points="77.27 38.8 77.27 71.8 44.57 39.1 44.27 38.8 44.27 38.8 44.37 38.8 77.27 38.8"></polygon><polygon class="cls-2" points="44.57 39.1 43.97 39.1 44.17 38.8 44.27 38.8 44.27 38.7 44.37 38.8 44.57 39.1"></polygon><polygon class="cls-2" points="44.27 38.8 44.37 38.8 44.17 38.8 44.27 38.8 44.27 0 66.37 16.7 44.27 38.8"></polygon><polygon class="cls-1" points="77.27 24.8 77.27 38.8 44.37 38.8 44.27 38.8 66.37 16.7 77.27 24.8"></polygon><path class="cls-1" d="M77.27,71.8V88.2a68.1,68.1,0,0,0-29.5-27.1l-3.5-1.7V39.1h.4Z"></path><path class="cls-2" d="M72.27,141.4l-.2.3-40.3-19.2A55.81,55.81,0,0,1,.07,69.2Z"></path><path class="cls-2" d="M77.77,119a53.39,53.39,0,0,1-1.7,11.9,57.77,57.77,0,0,1-3.7,10.3l-.1.2L.07,69.2a56.51,56.51,0,0,1,2-12.2,61.42,61.42,0,0,1,3.4-9l.3-.5.9.4Z"></path><path class="cls-2" d="M77.77,119,6.67,47.9l39.4,18.8A56,56,0,0,1,77.77,119Z"></path><path class="cls-2" d="M77.77,119a53.39,53.39,0,0,1-1.7,11.9,57.77,57.77,0,0,1-3.7,10.3l-.1.2-.2.3-40.3-19.2A55.81,55.81,0,0,1,.07,69.2a56.51,56.51,0,0,1,2-12.2,61.42,61.42,0,0,1,3.4-9l.3-.5.9.4,39.4,18.8A56,56,0,0,1,77.77,119Z"></path><path class="cls-2" d="M133.67,45.8a1.28,1.28,0,0,1,.4,1V80a1.37,1.37,0,0,1-1.4,1.4H126a1.37,1.37,0,0,1-1.4-1.4V53.6h-12.4V80a1.37,1.37,0,0,1-1.4,1.4h-6.7a1.37,1.37,0,0,1-1.4-1.4V46.8a1.37,1.37,0,0,1,1.4-1.4h28.7A1.22,1.22,0,0,1,133.67,45.8Z"></path><path class="cls-2" d="M156.37,45.4a21.23,21.23,0,0,1,5.9.7,13.68,13.68,0,0,1,4.5,2.3,11,11,0,0,1,2.9,3.8,12.38,12.38,0,0,1,1,5.2,12.54,12.54,0,0,1-1,5.3,9.91,9.91,0,0,1-2.9,3.8,13.61,13.61,0,0,1-4.5,2.3,18.32,18.32,0,0,1-5.9.8h-6.6V80.1a1.37,1.37,0,0,1-1.4,1.4h-6.7a1.37,1.37,0,0,1-1.4-1.4V46.8a1.37,1.37,0,0,1,1.4-1.4Zm-6.6,16.1h6.3a6.09,6.09,0,0,0,3.6-1,4.13,4.13,0,0,0,0-6.2,6.4,6.4,0,0,0-3.6-1h-6.3Z"></path><path class="cls-2" d="M173.87,58.8a14.27,14.27,0,0,1,1.3-5.4,12.55,12.55,0,0,1,3.1-4.4,16.13,16.13,0,0,1,4.9-3,19.6,19.6,0,0,1,6.7-1.1,20,20,0,0,1,6.7,1.1,13.91,13.91,0,0,1,5,3,12.18,12.18,0,0,1,3.1,4.4,16.44,16.44,0,0,1,1.3,5.4c.1,1.5.1,3,.1,4.6s0,3.1-.1,4.5a14.27,14.27,0,0,1-1.3,5.4,12.55,12.55,0,0,1-3.1,4.4,13.91,13.91,0,0,1-5,3,20,20,0,0,1-6.7,1.1,19.6,19.6,0,0,1-6.7-1.1,13.48,13.48,0,0,1-4.9-3,13.1,13.1,0,0,1-3.1-4.4,16.44,16.44,0,0,1-1.3-5.4c-.1-1.4-.1-2.9-.1-4.5S173.77,60.3,173.87,58.8Zm22.6,8.9c0-.6.1-1.3.1-2.1s.1-1.5.1-2.3a17,17,0,0,0-.1-2.3c0-.7-.1-1.4-.1-2a9.3,9.3,0,0,0-.5-2.4,7.61,7.61,0,0,0-1.2-1.9,5.78,5.78,0,0,0-2-1.3,8.09,8.09,0,0,0-5.6,0,5.33,5.33,0,0,0-2,1.3,6.15,6.15,0,0,0-1.2,1.9,6,6,0,0,0-.5,2.4,12.12,12.12,0,0,0-.1,2v4.6c0,.8.1,1.4.1,2.1a6.7,6.7,0,0,0,1.8,4.3,6.21,6.21,0,0,0,4.8,1.7,6,6,0,0,0,4.7-1.7A8.68,8.68,0,0,0,196.47,67.7Z"></path><path class="cls-2" d="M236.67,73.2a1.37,1.37,0,0,1,1.4,1.4v5.5a1.37,1.37,0,0,1-1.4,1.4h-24.4a1.37,1.37,0,0,1-1.4-1.4V46.8a1.37,1.37,0,0,1,1.4-1.4h24a1.37,1.37,0,0,1,1.4,1.4v5.5a1.37,1.37,0,0,1-1.4,1.4h-15.8v5.6h14.7a1.37,1.37,0,0,1,1.4,1.4v5.5a1.37,1.37,0,0,1-1.4,1.4h-14.7v5.8h16.2Z"></path><path class="cls-2" d="M273.67,79.7a.85.85,0,0,1,.2.6,1,1,0,0,1-1.1,1.1h-8.2a2.13,2.13,0,0,1-1.2-.3,3.82,3.82,0,0,1-.9-.9L252.77,68V80a1.37,1.37,0,0,1-1.4,1.4h-6.7a1.37,1.37,0,0,1-1.4-1.4V46.8a1.37,1.37,0,0,1,1.4-1.4h6.7a1.37,1.37,0,0,1,1.4,1.4V57.7l9.1-11.1.7-.7a1.81,1.81,0,0,1,1.4-.4h8a1,1,0,0,1,1.1,1.1,1.42,1.42,0,0,1-.2.6l-12.7,15.5Z"></path><path class="cls-2" d="M304.57,45.4a1.37,1.37,0,0,1,1.4,1.4v5.5a1.37,1.37,0,0,1-1.4,1.4h-9.1V80.1a1.37,1.37,0,0,1-1.4,1.4h-6.7a1.37,1.37,0,0,1-1.4-1.4V53.6h-9.1a1.37,1.37,0,0,1-1.4-1.4V46.7a1.37,1.37,0,0,1,1.4-1.4h27.7Z"></path><path class="cls-2" d="M107.67,100.7l.5,1.3h.1l3.3-9.3H113l-4.5,12.2a6.19,6.19,0,0,1-1.1,2,2.14,2.14,0,0,1-1.8.7h-.5c-.2,0-.3,0-.3-.1l.1-1h.7a1.43,1.43,0,0,0,1.1-.5,3.65,3.65,0,0,0,.7-1.4l.4-1.1-4.5-10.9h1.4Z"></path><path class="cls-2" d="M121.27,107.4h-1.2V97.5h-4.6v9.9h-1.2V96.5h7.1v10.9Z"></path><path class="cls-2" d="M131.47,102.9a5.71,5.71,0,0,1-.9,3.4,3.16,3.16,0,0,1-5.3-.2v5.5h-1.2V96.5h1l.1,1.5a3.74,3.74,0,0,1,1.2-1.3,2.93,2.93,0,0,1,1.6-.4,3,3,0,0,1,2.6,1.4,6.76,6.76,0,0,1,.9,3.7Zm-1.2-1.4a5,5,0,0,0-.7-2.9,2,2,0,0,0-1.9-1.1,2.46,2.46,0,0,0-1.5.5,3.39,3.39,0,0,0-.9,1.4v5.5a2.54,2.54,0,0,0,.9,1.3,2.46,2.46,0,0,0,1.5.5,2.06,2.06,0,0,0,1.9-1,5.38,5.38,0,0,0,.7-2.7Z"></path><path class="cls-2" d="M139.57,107.4a3.44,3.44,0,0,1-.1-.9v-.7a5.71,5.71,0,0,1-1.3,1.4,2.73,2.73,0,0,1-1.8.5,2.86,2.86,0,0,1-2.1-.8,3.33,3.33,0,0,1-.7-2.3,3,3,0,0,1,1.1-2.4,4.37,4.37,0,0,1,2.9-.9h1.9V100a2.44,2.44,0,0,0-.6-1.8,2.18,2.18,0,0,0-1.6-.7,2.11,2.11,0,0,0-1.6.6,2,2,0,0,0-.6,1.5H134v-.1a3.1,3.1,0,0,1,.9-2.2,3.74,3.74,0,0,1,2.5-1,3.24,3.24,0,0,1,2.4.9,3.57,3.57,0,0,1,.9,2.6v5.4a3.75,3.75,0,0,0,.1,1.1,4.25,4.25,0,0,0,.2,1.1Zm-3.1-.8a2.79,2.79,0,0,0,1.8-.6,3.27,3.27,0,0,0,1.1-1.5v-2.4h-1.9a2.72,2.72,0,0,0-2,.7,2.19,2.19,0,0,0-.7,1.7,2,2,0,0,0,.5,1.4A1.13,1.13,0,0,0,136.47,106.6Z"></path><path class="cls-2" d="M143.37,107.4V96.5h3.4a4.53,4.53,0,0,1,2.7.7,2.72,2.72,0,0,1,1,2.2,2.41,2.41,0,0,1-.4,1.5,2.73,2.73,0,0,1-1.2.9,1.94,1.94,0,0,1,1.4.9,2.46,2.46,0,0,1,.5,1.7,3,3,0,0,1-.9,2.3,3.74,3.74,0,0,1-2.5.8h-4Zm1.2-6h2.3a3,3,0,0,0,1.8-.5,1.93,1.93,0,0,0,0-2.8,3,3,0,0,0-1.8-.5h-2.2v3.8Zm0,1v4h2.8a2.54,2.54,0,0,0,1.6-.5,1.89,1.89,0,0,0,.6-1.5,1.68,1.68,0,0,0-.6-1.4,2.07,2.07,0,0,0-1.6-.5h-2.8Z"></path><path class="cls-2" d="M160.37,96.5v10.9h-1.2V97.5h-3.6v3.8a13.3,13.3,0,0,1-.6,4.7,2.16,2.16,0,0,1-2.2,1.4h-.5v-1.1h.3c.6,0,1-.4,1.3-1.1a11.66,11.66,0,0,0,.4-3.9V96.5Z"></path><path class="cls-2" d="M169.87,96.5v10.9h-1.2V103h-2.6l-2.2,4.4h-1.3l2.3-4.6a2.59,2.59,0,0,1-1.4-1.1,3.83,3.83,0,0,1-.5-1.9,3.41,3.41,0,0,1,.9-2.4,3.24,3.24,0,0,1,2.4-.9Zm-5.8,3.3a3,3,0,0,0,.5,1.6,1.45,1.45,0,0,0,1.4.6h2.7V97.6h-2.4a2.11,2.11,0,0,0-1.6.6A2.27,2.27,0,0,0,164.07,99.8Z"></path><path class="cls-2" d="M176.37,102.5H174v4.9h-1.2V96.5H174v5h2.4v-.3a5.62,5.62,0,0,1,1.1-3.5,3.7,3.7,0,0,1,5.8,0,5.62,5.62,0,0,1,1.1,3.5v1.6a5.62,5.62,0,0,1-1.1,3.5,3.7,3.7,0,0,1-5.8,0,5.62,5.62,0,0,1-1.1-3.5Zm1.2.3a4.53,4.53,0,0,0,.7,2.7,2.55,2.55,0,0,0,4.2,0,4.53,4.53,0,0,0,.7-2.7v-1.6a4.53,4.53,0,0,0-.7-2.7,2.55,2.55,0,0,0-4.2,0,4.53,4.53,0,0,0-.7,2.7Z"></path><path class="cls-2" d="M188,96.5v9.9h3.8V96.5H193v9.9h3.7V96.5h1.2v9.9h1.2l-.1,4.3h-1.1v-3.2h-11.1v-11Z"></path><path class="cls-2" d="M206.67,107.4a3.44,3.44,0,0,1-.1-.9v-.7a5.71,5.71,0,0,1-1.3,1.4,2.73,2.73,0,0,1-1.8.5,2.86,2.86,0,0,1-2.1-.8,3.33,3.33,0,0,1-.7-2.3,3,3,0,0,1,1.1-2.4,4.37,4.37,0,0,1,2.9-.9h1.9V100a2.44,2.44,0,0,0-.6-1.8,2.18,2.18,0,0,0-1.6-.7,2.11,2.11,0,0,0-1.6.6,2,2,0,0,0-.6,1.5h-1.1v-.1a3.1,3.1,0,0,1,.9-2.2,3.55,3.55,0,0,1,2.5-1,3.24,3.24,0,0,1,2.4.9,3.57,3.57,0,0,1,.9,2.6v5.4a3.75,3.75,0,0,0,.1,1.1,4.25,4.25,0,0,0,.2,1.1Zm-3.1-.8a2.79,2.79,0,0,0,1.8-.6,3.27,3.27,0,0,0,1.1-1.5v-2.4h-1.9a2.72,2.72,0,0,0-2,.7,2.19,2.19,0,0,0-.7,1.7,2,2,0,0,0,.5,1.4A1.85,1.85,0,0,0,203.57,106.6Z"></path><path class="cls-2" d="M217.27,96.5v10.9h-1.2V103h-2.6l-2.2,4.4H210l2.3-4.6a2.59,2.59,0,0,1-1.4-1.1,3.83,3.83,0,0,1-.5-1.9,3.41,3.41,0,0,1,.9-2.4,3.24,3.24,0,0,1,2.4-.9Zm-5.8,3.3a3,3,0,0,0,.5,1.6,1.45,1.45,0,0,0,1.4.6h2.7V97.6h-2.4a2.11,2.11,0,0,0-1.6.6A2.27,2.27,0,0,0,211.47,99.8Z"></path><path class="cls-2" d="M227.27,102.5H226v5h-1.2v-11H226v4.8h1.3l3.2-4.8H232l-3.7,5.3,4.1,5.7h-1.6Z"></path><path class="cls-2" d="M233.07,101.2a5.62,5.62,0,0,1,1.1-3.5,3.7,3.7,0,0,1,5.8,0,5.62,5.62,0,0,1,1.1,3.5v1.6a5.62,5.62,0,0,1-1.1,3.5,3.7,3.7,0,0,1-5.8,0,5.62,5.62,0,0,1-1.1-3.5Zm1.2,1.6a4.53,4.53,0,0,0,.7,2.7,2.55,2.55,0,0,0,4.2,0,4.53,4.53,0,0,0,.7-2.7v-1.6a4.53,4.53,0,0,0-.7-2.7,2.55,2.55,0,0,0-4.2,0,4.53,4.53,0,0,0-.7,2.7Z"></path><path class="cls-2" d="M248.47,105.7h0l3.4-9.2h1.5v10.9h-1.2V99h-.1l-3.2,8.4h-.8l-3.3-8.6h-.1v8.6h-1.2V96.5h1.6Z"></path><path class="cls-2" d="M263.17,107.4H262V97.5h-4.6v9.9h-1.2V96.5h7.1v10.9Z"></path><path class="cls-2" d="M271.57,107.4a3.44,3.44,0,0,1-.1-.9v-.7a5.71,5.71,0,0,1-1.3,1.4,2.73,2.73,0,0,1-1.8.5,2.86,2.86,0,0,1-2.1-.8,3.33,3.33,0,0,1-.7-2.3,3,3,0,0,1,1.1-2.4,4.37,4.37,0,0,1,2.9-.9h1.9V100a2.44,2.44,0,0,0-.6-1.8,2.18,2.18,0,0,0-1.6-.7,2.11,2.11,0,0,0-1.6.6,2,2,0,0,0-.6,1.5H266v-.1a3.1,3.1,0,0,1,.9-2.2,3.55,3.55,0,0,1,2.5-1,3.24,3.24,0,0,1,2.4.9,3.57,3.57,0,0,1,.9,2.6v5.4a3.75,3.75,0,0,0,.1,1.1,4.25,4.25,0,0,0,.2,1.1Zm-3-.8a2.79,2.79,0,0,0,1.8-.6,3.27,3.27,0,0,0,1.1-1.5v-2.4h-1.9a2.72,2.72,0,0,0-2,.7,2.19,2.19,0,0,0-.7,1.7,2,2,0,0,0,.5,1.4A1.64,1.64,0,0,0,268.57,106.6Z"></path><path class="cls-2" d="M282.47,107.4h-1.2v-5h-4.6v5h-1.2V96.5h1.2v4.9h4.6V96.5h1.2Z"></path><path class="cls-2" d="M291.07,96.5h1.2v10.9h-1.2V98.8H291l-4.6,8.6h-1.1V96.5h1.2v8.6h.1Z"></path><path class="cls-2" d="M301.77,96.5v10.9h-1.2V103H298l-2.2,4.4h-1.3l2.3-4.6a2.59,2.59,0,0,1-1.4-1.1,3.83,3.83,0,0,1-.5-1.9,3.41,3.41,0,0,1,.9-2.4,3.24,3.24,0,0,1,2.4-.9ZM296,99.8a3,3,0,0,0,.5,1.6,1.68,1.68,0,0,0,1.4.6h2.7V97.6h-2.4a2.11,2.11,0,0,0-1.6.6A2.27,2.27,0,0,0,296,99.8Z"></path></g></g></svg> 