<?xml version="1.0" encoding="UTF-8"?> <!-- Generator: Adobe Illustrator 17.1.0, SVG Export Plug-In . SVG Version: 6.00 Build 0) --> <svg xmlns="http://www.w3.org/2000/svg" xmlns:xlink="http://www.w3.org/1999/xlink" version="1.1" id="Layer_1" x="0px" y="0px" viewBox="0 0 322 158" xml:space="preserve"> <polygon fill-rule="evenodd" clip-rule="evenodd" fill="#80888B" points="46.7,8.5 46.7,64.9 13.6,49.1 13.6,33.3 "></polygon> <polygon fill="#F2716F" points="86,47.3 86,80.3 53.3,47.6 53,47.3 53,47.3 53.1,47.3 "></polygon> <polygon fill="#E41F26" points="53.3,47.6 52.7,47.6 52.9,47.3 53,47.3 53,47.2 53.1,47.3 "></polygon> <polygon fill="#C62329" points="53,47.3 53.1,47.3 52.9,47.3 53,47.3 53,8.5 75.1,25.2 "></polygon> <polygon fill-rule="evenodd" clip-rule="evenodd" fill="#EF374A" points="86,33.3 86,47.3 53.1,47.3 53,47.3 75.1,25.2 "></polygon> <path fill-rule="evenodd" clip-rule="evenodd" fill="#E41F26" d="M86,80.3v16.4c-6.7-11.4-16.7-21-29.5-27.1L53,67.9V47.6h0.4 L86,80.3z"></path> <path fill="#008966" d="M81,149.9l-0.2,0.3L40.5,131c-21-10-32.8-31.4-31.7-53.3L81,149.9z"></path> <path fill="#4EC0B2" d="M86.5,127.5c-0.1,4-0.7,8-1.7,11.9c-0.9,3.5-2.1,6.9-3.7,10.3l-0.1,0.2L8.8,77.7c0.2-4.1,0.9-8.2,2-12.2 c0.9-3,2-6.1,3.4-9l0.3-0.5l0.9,0.4L86.5,127.5z"></path> <path fill="#00B08D" d="M86.5,127.5L15.4,56.4l39.4,18.8C75.4,85.1,87.2,106,86.5,127.5z"></path> <path fill-rule="evenodd" clip-rule="evenodd" fill="none" d="M86.5,127.5c-0.1,4-0.7,8-1.7,11.9c-0.9,3.5-2.1,6.9-3.7,10.3 l-0.1,0.2l-0.2,0.3L40.5,131c-21-10-32.8-31.4-31.7-53.3c0.2-4.1,0.9-8.2,2-12.2c0.9-3,2-6.1,3.4-9l0.3-0.5l0.9,0.4l39.4,18.8 C75.4,85.1,87.2,106,86.5,127.5z"></path> <g> <g> <path d="M142.4,54.3c0.3,0.3,0.4,0.6,0.4,1v33.2c0,0.4-0.1,0.7-0.4,1c-0.3,0.3-0.6,0.4-1,0.4h-6.7c-0.4,0-0.7-0.1-1-0.4 c-0.3-0.3-0.4-0.6-0.4-1V62.1h-12.4v26.4c0,0.4-0.1,0.7-0.4,1c-0.3,0.3-0.6,0.4-1,0.4h-6.7c-0.4,0-0.7-0.1-1-0.4 c-0.3-0.3-0.4-0.6-0.4-1V55.3c0-0.4,0.1-0.7,0.4-1c0.3-0.3,0.6-0.4,1-0.4h28.7C141.8,53.9,142.1,54,142.4,54.3z"></path> <path d="M165.1,53.9c2.2,0,4.2,0.2,5.9,0.7c1.7,0.5,3.2,1.3,4.5,2.3c1.2,1,2.2,2.3,2.9,3.8c0.7,1.5,1,3.3,1,5.2c0,2-0.3,3.8-1,5.3 c-0.7,1.5-1.6,2.8-2.9,3.8c-1.2,1-2.7,1.7-4.5,2.3s-3.7,0.8-5.9,0.8h-6.6v10.5c0,0.4-0.1,0.7-0.4,1c-0.3,0.3-0.6,0.4-1,0.4h-6.7 c-0.4,0-0.7-0.1-1-0.4c-0.3-0.3-0.4-0.6-0.4-1V55.3c0-0.4,0.1-0.7,0.4-1c0.3-0.3,0.6-0.4,1-0.4H165.1z M158.5,70h6.3 c1.4,0,2.6-0.3,3.6-1c0.9-0.6,1.4-1.7,1.4-3.1c0-1.4-0.5-2.5-1.4-3.1c-0.9-0.6-2.1-1-3.6-1h-6.3V70z"></path> <path d="M182.6,67.3c0.1-1.9,0.5-3.7,1.3-5.4c0.7-1.7,1.8-3.2,3.1-4.4c1.4-1.3,3-2.2,4.9-3c1.9-0.7,4.2-1.1,6.7-1.1 c2.5,0,4.7,0.4,6.7,1.1s3.6,1.7,5,3c1.4,1.3,2.4,2.7,3.1,4.4c0.7,1.7,1.2,3.5,1.3,5.4c0.1,1.5,0.1,3,0.1,4.6c0,1.6,0,3.1-0.1,4.5 c-0.1,1.9-0.5,3.7-1.3,5.4c-0.7,1.7-1.8,3.2-3.1,4.4c-1.4,1.3-3,2.3-5,3s-4.2,1.1-6.7,1.1c-2.5,0-4.8-0.4-6.7-1.1 c-1.9-0.7-3.6-1.7-4.9-3c-1.4-1.3-2.4-2.8-3.1-4.4c-0.7-1.7-1.2-3.5-1.3-5.4c-0.1-1.4-0.1-2.9-0.1-4.5 C182.5,70.3,182.5,68.8,182.6,67.3z M205.2,76.2c0-0.6,0.1-1.3,0.1-2.1c0-0.8,0.1-1.5,0.1-2.3s0-1.6-0.1-2.3c0-0.7-0.1-1.4-0.1-2 c-0.1-0.9-0.2-1.6-0.5-2.4c-0.3-0.7-0.7-1.3-1.2-1.9c-0.5-0.5-1.2-1-2-1.3c-0.8-0.3-1.7-0.5-2.8-0.5c-1.1,0-2,0.2-2.8,0.5 c-0.8,0.3-1.4,0.7-2,1.3c-0.5,0.5-0.9,1.2-1.2,1.9c-0.3,0.7-0.5,1.5-0.5,2.4c-0.1,0.6-0.1,1.2-0.1,2c0,0.7,0,1.5,0,2.3 s0,1.6,0,2.3c0,0.8,0.1,1.4,0.1,2.1c0.1,1.7,0.7,3.1,1.8,4.3c1,1.1,2.6,1.7,4.8,1.7s3.7-0.6,4.7-1.7 C204.4,79.3,205,77.9,205.2,76.2z"></path> <path d="M245.4,81.7c0.4,0,0.7,0.1,1,0.4c0.3,0.3,0.4,0.6,0.4,1v5.5c0,0.4-0.1,0.7-0.4,1c-0.3,0.3-0.6,0.4-1,0.4h-24.4 c-0.4,0-0.7-0.1-1-0.4c-0.3-0.3-0.4-0.6-0.4-1V55.3c0-0.4,0.1-0.7,0.4-1c0.3-0.3,0.6-0.4,1-0.4h24c0.4,0,0.7,0.1,1,0.4 c0.3,0.3,0.4,0.6,0.4,1v5.5c0,0.4-0.1,0.7-0.4,1c-0.3,0.3-0.6,0.4-1,0.4h-15.8v5.6h14.7c0.4,0,0.7,0.1,1,0.4 c0.3,0.3,0.4,0.6,0.4,1v5.5c0,0.4-0.1,0.7-0.4,1c-0.3,0.3-0.6,0.4-1,0.4h-14.7v5.8H245.4z"></path> <path d="M282.4,88.2c0.1,0.1,0.2,0.3,0.2,0.6c0,0.3-0.1,0.6-0.3,0.8c-0.2,0.2-0.5,0.3-0.8,0.3h-8.2c-0.5,0-0.9-0.1-1.2-0.3 c-0.3-0.2-0.6-0.5-0.9-0.9l-9.7-12.2v12c0,0.4-0.1,0.7-0.4,1c-0.3,0.3-0.6,0.4-1,0.4h-6.7c-0.4,0-0.7-0.1-1-0.4 c-0.3-0.3-0.4-0.6-0.4-1V55.3c0-0.4,0.1-0.7,0.4-1c0.3-0.3,0.6-0.4,1-0.4h6.7c0.4,0,0.7,0.1,1,0.4c0.3,0.3,0.4,0.6,0.4,1v10.9 l9.1-11.1c0.2-0.2,0.4-0.4,0.7-0.7c0.3-0.3,0.7-0.4,1.4-0.4h8c0.3,0,0.6,0.1,0.8,0.3c0.2,0.2,0.3,0.5,0.3,0.8 c0,0.2-0.1,0.4-0.2,0.6l-12.7,15.5L282.4,88.2z"></path> <path d="M313.3,53.9c0.4,0,0.7,0.1,1,0.4c0.3,0.3,0.4,0.6,0.4,1v5.5c0,0.4-0.1,0.7-0.4,1c-0.3,0.3-0.6,0.4-1,0.4h-9.1v26.4 c0,0.4-0.1,0.7-0.4,1c-0.3,0.3-0.6,0.4-1,0.4h-6.7c-0.4,0-0.7-0.1-1-0.4c-0.3-0.3-0.4-0.6-0.4-1V62.1h-9.1c-0.4,0-0.7-0.1-1-0.4 c-0.3-0.3-0.4-0.6-0.4-1v-5.5c0-0.4,0.1-0.7,0.4-1c0.3-0.3,0.6-0.4,1-0.4H313.3z"></path> </g> </g> <g> <g> <path fill="#989BA5" d="M116.4,109.2l0.5,1.3h0.1l3.3-9.3h1.4l-4.5,12.2c-0.3,0.9-0.7,1.5-1.1,2c-0.4,0.5-1,0.7-1.8,0.7 c-0.1,0-0.3,0-0.5,0c-0.2,0-0.3,0-0.3-0.1l0.1-1c0.1,0,0.2,0,0.3,0c0.2,0,0.3,0,0.4,0c0.5,0,0.8-0.2,1.1-0.5 c0.3-0.3,0.5-0.8,0.7-1.4l0.4-1.1l-4.5-10.9h1.4L116.4,109.2z"></path> <path fill="#989BA5" d="M130,115.9h-1.2v-9.9h-4.6v9.9H123V105h7.1V115.9z"></path> <path fill="#989BA5" d="M140.2,111.4c0,1.4-0.3,2.6-0.9,3.4c-0.6,0.9-1.5,1.3-2.6,1.3c-0.6,0-1.1-0.1-1.6-0.4 c-0.5-0.3-0.8-0.6-1.1-1.1v5.5h-1.2V105h1l0.1,1.5c0.3-0.5,0.7-1,1.2-1.3c0.5-0.3,1-0.4,1.6-0.4c1.1,0,2,0.5,2.6,1.4 c0.6,0.9,0.9,2.2,0.9,3.7V111.4z M139,110c0-1.2-0.2-2.2-0.7-2.9c-0.4-0.8-1.1-1.1-1.9-1.1c-0.6,0-1.1,0.2-1.5,0.5 c-0.4,0.4-0.7,0.8-0.9,1.4v5.5c0.2,0.6,0.5,1,0.9,1.3c0.4,0.3,0.9,0.5,1.5,0.5c0.8,0,1.5-0.3,1.9-1c0.4-0.7,0.7-1.6,0.7-2.7V110z"></path> <path fill="#989BA5" d="M148.3,115.9c-0.1-0.4-0.1-0.7-0.1-0.9c0-0.2,0-0.5,0-0.7c-0.3,0.5-0.8,1-1.3,1.4 c-0.5,0.4-1.1,0.5-1.8,0.5c-0.9,0-1.6-0.3-2.1-0.8c-0.5-0.6-0.7-1.3-0.7-2.3c0-1,0.4-1.8,1.1-2.4s1.7-0.9,2.9-0.9h1.9v-1.3 c0-0.8-0.2-1.4-0.6-1.8s-0.9-0.7-1.6-0.7c-0.7,0-1.2,0.2-1.6,0.6c-0.4,0.4-0.6,0.9-0.6,1.5l-1.1,0l0-0.1c0-0.8,0.3-1.6,0.9-2.2 c0.7-0.6,1.5-1,2.5-1c1,0,1.8,0.3,2.4,0.9c0.6,0.6,0.9,1.5,0.9,2.6v5.4c0,0.4,0,0.8,0.1,1.1c0,0.4,0.1,0.7,0.2,1.1H148.3z M145.2,115.1c0.7,0,1.3-0.2,1.8-0.6c0.5-0.4,0.9-0.9,1.1-1.5v-2.4h-1.9c-0.8,0-1.5,0.2-2,0.7s-0.7,1-0.7,1.7 c0,0.6,0.2,1.1,0.5,1.4C144.2,114.9,144.6,115.1,145.2,115.1z"></path> <path fill="#989BA5" d="M152.1,115.9V105h3.4c1.1,0,2,0.2,2.7,0.7c0.6,0.5,1,1.2,1,2.2c0,0.6-0.1,1.1-0.4,1.5 c-0.3,0.4-0.7,0.7-1.2,0.9c0.6,0.1,1.1,0.4,1.4,0.9c0.4,0.5,0.5,1,0.5,1.7c0,1-0.3,1.7-0.9,2.3c-0.6,0.5-1.4,0.8-2.5,0.8H152.1z M153.3,109.9h2.3c0.8,0,1.4-0.2,1.8-0.5c0.4-0.3,0.6-0.8,0.6-1.4c0-0.6-0.2-1.1-0.6-1.4c-0.4-0.3-1-0.5-1.8-0.5h-2.2V109.9z M153.3,110.9v4h2.8c0.7,0,1.2-0.2,1.6-0.5c0.4-0.3,0.6-0.9,0.6-1.5c0-0.6-0.2-1.1-0.6-1.4c-0.4-0.4-0.9-0.5-1.6-0.5H153.3z"></path> <path fill="#989BA5" d="M169.1,105v10.9h-1.2v-9.9h-3.6v3.8c0,2.2-0.2,3.7-0.6,4.7c-0.4,1-1.2,1.4-2.2,1.4H161l0-1.1l0.3,0 c0.6,0,1-0.4,1.3-1.1c0.3-0.7,0.4-2,0.4-3.9V105H169.1z"></path> <path fill="#989BA5" d="M178.6,105v10.9h-1.2v-4.4h-2.6l-2.2,4.4h-1.3l2.3-4.6c-0.6-0.2-1.1-0.6-1.4-1.1c-0.3-0.5-0.5-1.2-0.5-1.9 c0-1,0.3-1.7,0.9-2.4c0.6-0.6,1.4-0.9,2.4-0.9H178.6z M172.8,108.3c0,0.6,0.2,1.1,0.5,1.6s0.8,0.6,1.4,0.6h2.7v-4.4h-2.4 c-0.7,0-1.2,0.2-1.6,0.6C173,107.1,172.8,107.7,172.8,108.3z"></path> <path fill="#989BA5" d="M185.1,111h-2.4v4.9h-1.2V105h1.2v5h2.4v-0.3c0-1.4,0.4-2.6,1.1-3.5c0.7-0.9,1.7-1.4,2.9-1.4 c1.2,0,2.2,0.5,2.9,1.4c0.7,0.9,1.1,2.1,1.1,3.5v1.6c0,1.4-0.4,2.6-1.1,3.5s-1.7,1.4-2.9,1.4c-1.2,0-2.2-0.5-2.9-1.4 c-0.7-0.9-1.1-2.1-1.1-3.5V111z M186.3,111.3c0,1.1,0.2,2,0.7,2.7c0.5,0.7,1.2,1.1,2.1,1.1c0.9,0,1.6-0.4,2.1-1.1 c0.5-0.7,0.7-1.6,0.7-2.7v-1.6c0-1.1-0.2-2-0.7-2.7c-0.5-0.7-1.2-1.1-2.1-1.1c-0.9,0-1.6,0.4-2.1,1.1c-0.5,0.7-0.7,1.6-0.7,2.7 V111.3z"></path> <path fill="#989BA5" d="M196.7,105v9.9h3.8V105h1.2v9.9h3.7V105h1.2v9.9h1.2l-0.1,4.3h-1.1v-3.2h-11.1V105H196.7z"></path> <path fill="#989BA5" d="M215.4,115.9c-0.1-0.4-0.1-0.7-0.1-0.9c0-0.2,0-0.5,0-0.7c-0.3,0.5-0.8,1-1.3,1.4s-1.1,0.5-1.8,0.5 c-0.9,0-1.6-0.3-2.1-0.8c-0.5-0.6-0.7-1.3-0.7-2.3c0-1,0.4-1.8,1.1-2.4s1.7-0.9,2.9-0.9h1.9v-1.3c0-0.8-0.2-1.4-0.6-1.8 c-0.4-0.4-0.9-0.7-1.6-0.7c-0.7,0-1.2,0.2-1.6,0.6c-0.4,0.4-0.6,0.9-0.6,1.5l-1.1,0l0-0.1c0-0.8,0.3-1.6,0.9-2.2s1.5-1,2.5-1 c1,0,1.8,0.3,2.4,0.9c0.6,0.6,0.9,1.5,0.9,2.6v5.4c0,0.4,0,0.8,0.1,1.1c0,0.4,0.1,0.7,0.2,1.1H215.4z M212.3,115.1 c0.7,0,1.3-0.2,1.8-0.6c0.5-0.4,0.9-0.9,1.1-1.5v-2.4h-1.9c-0.8,0-1.5,0.2-2,0.7s-0.7,1-0.7,1.7c0,0.6,0.2,1.1,0.5,1.4 S211.8,115.1,212.3,115.1z"></path> <path fill="#989BA5" d="M226,105v10.9h-1.2v-4.4h-2.6l-2.2,4.4h-1.3l2.3-4.6c-0.6-0.2-1.1-0.6-1.4-1.1c-0.3-0.5-0.5-1.2-0.5-1.9 c0-1,0.3-1.7,0.9-2.4c0.6-0.6,1.4-0.9,2.4-0.9H226z M220.2,108.3c0,0.6,0.2,1.1,0.5,1.6s0.8,0.6,1.4,0.6h2.7v-4.4h-2.4 c-0.7,0-1.2,0.2-1.6,0.6C220.4,107.1,220.2,107.7,220.2,108.3z"></path> <path fill="#989BA5" d="M236,111h-1.3v5h-1.2V105h1.2v4.8h1.3l3.2-4.8h1.5l-3.7,5.3l4.1,5.7h-1.6L236,111z"></path> <path fill="#989BA5" d="M241.8,109.7c0-1.4,0.4-2.6,1.1-3.5c0.7-0.9,1.7-1.4,2.9-1.4c1.2,0,2.2,0.5,2.9,1.4 c0.7,0.9,1.1,2.1,1.1,3.5v1.6c0,1.4-0.4,2.6-1.1,3.5s-1.7,1.4-2.9,1.4c-1.2,0-2.2-0.5-2.9-1.4s-1.1-2.1-1.1-3.5V109.7z M243,111.3 c0,1.1,0.2,2,0.7,2.7c0.5,0.7,1.2,1.1,2.1,1.1c0.9,0,1.6-0.4,2.1-1.1c0.5-0.7,0.7-1.6,0.7-2.7v-1.6c0-1.1-0.2-2-0.7-2.7 c-0.5-0.7-1.2-1.1-2.1-1.1c-0.9,0-1.6,0.4-2.1,1.1c-0.5,0.7-0.7,1.6-0.7,2.7V111.3z"></path> <path fill="#989BA5" d="M257.2,114.2L257.2,114.2l3.4-9.2h1.5v10.9h-1.2v-8.4l-0.1,0l-3.2,8.4h-0.8l-3.3-8.6l-0.1,0v8.6h-1.2V105 h1.6L257.2,114.2z"></path> <path fill="#989BA5" d="M271.9,115.9h-1.2v-9.9h-4.6v9.9h-1.2V105h7.1V115.9z"></path> <path fill="#989BA5" d="M280.3,115.9c-0.1-0.4-0.1-0.7-0.1-0.9c0-0.2,0-0.5,0-0.7c-0.3,0.5-0.8,1-1.3,1.4s-1.1,0.5-1.8,0.5 c-0.9,0-1.6-0.3-2.1-0.8c-0.5-0.6-0.7-1.3-0.7-2.3c0-1,0.4-1.8,1.1-2.4s1.7-0.9,2.9-0.9h1.9v-1.3c0-0.8-0.2-1.4-0.6-1.8 c-0.4-0.4-0.9-0.7-1.6-0.7c-0.7,0-1.2,0.2-1.6,0.6c-0.4,0.4-0.6,0.9-0.6,1.5l-1.1,0l0-0.1c0-0.8,0.3-1.6,0.9-2.2s1.5-1,2.5-1 c1,0,1.8,0.3,2.4,0.9c0.6,0.6,0.9,1.5,0.9,2.6v5.4c0,0.4,0,0.8,0.1,1.1c0,0.4,0.1,0.7,0.2,1.1H280.3z M277.3,115.1 c0.7,0,1.3-0.2,1.8-0.6c0.5-0.4,0.9-0.9,1.1-1.5v-2.4h-1.9c-0.8,0-1.5,0.2-2,0.7s-0.7,1-0.7,1.7c0,0.6,0.2,1.1,0.5,1.4 S276.7,115.1,277.3,115.1z"></path> <path fill="#989BA5" d="M291.2,115.9H290v-5h-4.6v5h-1.2V105h1.2v4.9h4.6V105h1.2V115.9z"></path> <path fill="#989BA5" d="M299.8,105h1.2v10.9h-1.2v-8.6l-0.1,0l-4.6,8.6H294V105h1.2v8.6l0.1,0L299.8,105z"></path> <path fill="#989BA5" d="M310.5,105v10.9h-1.2v-4.4h-2.6l-2.2,4.4h-1.3l2.3-4.6c-0.6-0.2-1.1-0.6-1.4-1.1c-0.3-0.5-0.5-1.2-0.5-1.9 c0-1,0.3-1.7,0.9-2.4c0.6-0.6,1.4-0.9,2.4-0.9H310.5z M304.7,108.3c0,0.6,0.2,1.1,0.5,1.6c0.3,0.4,0.8,0.6,1.4,0.6h2.7v-4.4h-2.4 c-0.7,0-1.2,0.2-1.6,0.6C304.9,107.1,304.7,107.7,304.7,108.3z"></path> </g> </g> </svg> 